<svg width="230" height="96" viewBox="0 0 230 96" fill="none" xmlns="http://www.w3.org/2000/svg">
<g id="Component 13">
<path id="Vector 10" d="M224.796 61.1163H210.818C210.126 61.1163 209.484 60.7592 209.119 60.1721L206.402 55.8008C205.707 54.6822 204.139 54.5294 203.241 55.4928L199.518 59.4858C198.706 60.3563 197.319 60.3298 196.541 59.4289L194.008 56.4947C192.95 55.2688 190.95 55.7433 190.555 57.3138L183.321 86.0781C182.785 88.2076 179.707 88.0433 179.401 85.8689L172.781 38.8007C172.494 36.7638 169.689 36.4342 168.938 38.3492L161.086 58.3743C160.571 59.6894 158.891 60.07 157.859 59.1057L155.311 56.7253C154.033 55.5312 151.946 56.4375 151.946 58.1867V59.1163C151.946 60.2209 151.05 61.1163 149.946 61.1163H141.287C140.63 61.1163 140.015 60.7935 139.641 60.2528L137.468 57.1058C136.503 55.7087 134.346 56.0735 133.894 57.7102L126.305 85.2063C125.711 87.3584 122.572 87.067 122.384 84.8423L118.736 41.6129C118.551 39.4182 115.473 39.091 114.83 41.1977L109.839 57.5641C109.374 59.0875 107.402 59.4832 106.386 58.2569L106.045 57.8457C104.852 56.4057 102.511 57.2496 102.511 59.1197V59.1197C102.511 60.2224 101.617 61.1163 100.515 61.1163H94.6854C94.0445 61.1163 93.4425 60.8092 93.0663 60.2904L90.8345 57.2126C89.8185 55.8115 87.6232 56.2747 87.2599 57.9669L81.9708 82.6043C81.4868 84.8586 78.2022 84.6398 78.0215 82.3412L72.7633 15.4404C72.5796 13.1032 69.2173 12.935 68.8012 15.2422L59.6179 66.1689C59.4462 67.1212 58.6074 67.814 57.6397 67.814C35.629 67.814 31.1238 67.814 8.68871 67.814C8.13397 67.814 7.59062 68.0444 7.21233 68.4501L7.01505 68.6617C6.19249 69.544 4.78196 69.5028 4.01227 68.5741L3.9822 68.5378C3.60224 68.0793 3.03774 67.814 2.44228 67.814H0" stroke="url(#paint0_linear_3834_5822)"/>
<ellipse id="Ellipse 43" cx="226.878" cy="60.8372" rx="3.12217" ry="3.34883" fill="url(#paint1_linear_3834_5822)"/>
</g>
<defs>
<linearGradient id="paint0_linear_3834_5822" x1="26.8625" y1="48" x2="0.187634" y2="57.7695" gradientUnits="userSpaceOnUse">
<stop stop-color="#030712"/>
<stop offset="1" stop-color="#FF3D00"/>
</linearGradient>
<linearGradient id="paint1_linear_3834_5822" x1="230" y1="60.8372" x2="224.797" y2="60.8372" gradientUnits="userSpaceOnUse">
<stop stop-color="#01196F" stop-opacity="0.02"/>
<stop offset="0.395" stop-color="#8C8F98" stop-opacity="0"/>
<stop offset="0.51273" stop-color="#C9D3F9" stop-opacity="0.35"/>
<stop offset="0.9"/>
</linearGradient>
</defs>
</svg>
