<svg width="20" height="20" viewBox="0 0 20 20" fill="none" xmlns="http://www.w3.org/2000/svg">
<g id="Group">
<path id="Vector" d="M14.7143 12.3567L13.536 11.1783L14.7143 9.99998C15.0238 9.69045 15.2694 9.32297 15.4369 8.91854C15.6044 8.51412 15.6906 8.08065 15.6906 7.6429C15.6906 7.20515 15.6044 6.77168 15.4369 6.36726C15.2694 5.96283 15.0238 5.59535 14.7143 5.28582C14.4048 4.97628 14.0373 4.73074 13.6329 4.56322C13.2284 4.3957 12.795 4.30948 12.3572 4.30948C11.9195 4.30948 11.486 4.3957 11.0816 4.56322C10.6771 4.73074 10.3097 4.97628 10.0001 5.28582L8.8218 6.46415L7.64347 5.28582L8.8218 4.10748C9.76206 3.18242 11.0298 2.66636 12.3488 2.67173C13.6678 2.6771 14.9313 3.20346 15.864 4.13616C16.7967 5.06885 17.323 6.33231 17.3284 7.65133C17.3338 8.97035 16.8177 10.2381 15.8926 11.1783L14.7143 12.3567ZM12.3568 14.7141L11.1785 15.8925C10.7156 16.363 10.1641 16.7372 9.55585 16.9935C8.94761 17.2498 8.29465 17.3831 7.63462 17.3858C6.97459 17.3885 6.32056 17.2605 5.71025 17.0091C5.09994 16.7578 4.54544 16.3881 4.07872 15.9214C3.61201 15.4547 3.24232 14.9002 2.99097 14.2899C2.73963 13.6796 2.61161 13.0255 2.6143 12.3655C2.61699 11.7055 2.75033 11.0525 3.00663 10.4443C3.26294 9.83602 3.63713 9.28455 4.10763 8.82165L5.28597 7.64332L6.4643 8.82165L5.28597 9.99998C4.97643 10.3095 4.73089 10.677 4.56337 11.0814C4.39585 11.4859 4.30963 11.9193 4.30963 12.3571C4.30963 12.7948 4.39585 13.2283 4.56337 13.6327C4.73089 14.0371 4.97643 14.4046 5.28597 14.7141C5.5955 15.0237 5.96298 15.2692 6.36741 15.4367C6.77183 15.6043 7.2053 15.6905 7.64305 15.6905C8.0808 15.6905 8.51427 15.6043 8.91869 15.4367C9.32312 15.2692 9.6906 15.0237 10.0001 14.7141L11.1785 13.5358L12.3568 14.7141ZM12.3568 6.46415L13.536 7.64332L7.64347 13.535L6.4643 12.3567L12.3568 6.46498V6.46415Z" fill="#010D37"/>
</g>
</svg>
