<svg xmlns="http://www.w3.org/2000/svg" width="102" height="16" viewBox="0 0 102 16" fill="none">
  <g clip-path="url(#clip0_3816_20943)">
    <path d="M6.53166 14.9798L0.591797 1.91663H5.1586L9.20147 11.6841H9.42585L13.4687 1.91663H17.9359L11.9966 14.9798H6.53109H6.53166Z" fill="#1749FC"/>
    <path d="M23.2089 2.04364H18.9912V14.9798H23.2089V2.04364Z" fill="#1749FC"/>
    <path d="M24.6104 11.8601L28.254 11.0616C28.5536 12.1095 29.4517 12.634 30.6749 12.634C31.7228 12.634 32.3219 12.1596 32.3219 11.4608C32.3219 9.28992 24.9099 11.0115 24.9099 5.67076C24.9099 3.57444 26.8815 2.00262 30.3253 2.00262C33.22 2.00262 35.3665 3.00095 35.9906 5.14682L32.3219 5.97032C32.0474 4.97199 31.249 4.59783 30.4004 4.59783C29.4773 4.59783 28.9283 5.0221 28.9283 5.6457C28.9283 7.79214 36.3403 6.09504 36.3403 11.4358C36.3403 13.6568 34.3186 15.2292 30.7501 15.2292C27.5558 15.2292 25.2596 14.1563 24.6109 11.8601H24.6104Z" fill="#1749FC"/>
    <path d="M75.5498 15.1227V0.731506H81.0392C85.6242 0.731506 88.3584 3.63025 88.3584 7.92711C88.3584 12.224 85.6242 15.1227 81.0392 15.1227H75.5498ZM79.1063 12.1625H81.0386C83.3616 12.1625 84.8007 10.5793 84.8007 7.92711C84.8007 5.27496 83.3616 3.69176 81.0386 3.69176H79.1063V12.1625Z" fill="#1749FC"/>
    <path d="M89.3604 15.1227V0.731506H95.6106C98.9205 0.731506 100.976 2.45879 100.976 5.50105C100.976 7.45386 100.03 8.85198 98.4478 9.55132L101.408 15.1227H97.4398L95.0963 10.1066H92.9169V15.1227H89.3604ZM92.9169 7.43336H95.2814C96.5765 7.43336 97.4193 6.73402 97.4193 5.50105C97.4193 4.26809 96.5765 3.54767 95.2814 3.54767H92.9169V7.43336Z" fill="#1749FC"/>
    <path d="M51.1587 15.2685C48.4821 15.2685 46.2326 14.6785 44.6522 13.5629C43.4443 12.7098 42.6356 11.5776 42.2712 10.2456H41.1162V6.69474H42.3224C42.7097 5.43728 43.5013 4.36549 44.6522 3.55281C46.232 2.43717 48.4821 1.84717 51.1587 1.84717C53.8354 1.84717 56.0883 2.43432 57.6664 3.54598C58.8191 4.35808 59.6112 5.43273 59.9973 6.69474H61.3402V10.2456H60.048C59.6847 11.5822 58.8754 12.7172 57.6664 13.5691C56.0889 14.6808 53.8382 15.2685 51.1582 15.2685H51.1587ZM44.5679 8.48353L44.5981 8.88047C44.6813 9.96081 45.1915 10.8395 46.1147 11.4916C47.2645 12.3037 49.0089 12.7326 51.1587 12.7326C53.3086 12.7326 55.0581 12.3049 56.2056 11.4962C57.1276 10.8464 57.6373 9.9665 57.7194 8.88161L57.7495 8.48353L57.7074 8.10197C57.5946 7.07744 57.0889 6.24198 56.2056 5.61952C55.0575 4.81084 53.3126 4.38371 51.1587 4.38371C49.0049 4.38371 47.2651 4.81311 46.1147 5.62522C45.2297 6.24996 44.7234 7.0837 44.6101 8.10367L44.5679 8.4841V8.48353Z" fill="#1749FC"/>
    <path d="M51.1864 12.1522C49.6675 12.1522 48.4015 11.8253 47.5262 11.2068C46.7899 10.6869 46.3337 9.97274 46.1942 9.12761H45.5859V7.88269H46.2135C46.373 7.08368 46.8229 6.40541 47.5268 5.90881C48.4027 5.29033 49.6681 4.96344 51.187 4.96344C52.7058 4.96344 53.9741 5.28919 54.8483 5.90482C55.5522 6.40085 56.0021 7.08026 56.1609 7.88212H56.8711V9.12704H56.1797C56.0408 9.97502 55.5846 10.6909 54.8483 11.2097C53.9741 11.8259 52.7081 12.1516 51.187 12.1516L51.1864 12.1522ZM46.7694 8.50572L46.791 8.78648C46.8514 9.5758 47.2221 10.2165 47.8918 10.6892C48.6601 11.2313 49.7991 11.5184 51.1864 11.5184C52.5737 11.5184 53.7161 11.2325 54.4826 10.6926C55.1518 10.2205 55.522 9.57979 55.5823 8.78705L55.6034 8.50629L55.5732 8.23464C55.4907 7.48461 55.1233 6.87525 54.4821 6.42363C53.715 5.88375 52.5754 5.59786 51.1858 5.59786C49.7962 5.59786 48.6595 5.88432 47.8913 6.42705C47.2494 6.8798 46.8821 7.48802 46.799 8.23464L46.7688 8.50572H46.7694Z" fill="#1749FC"/>
    <path d="M52.7532 8.55813C52.7532 8.76372 52.7128 8.96362 52.6336 9.15155C52.5567 9.33322 52.4468 9.4961 52.3067 9.6362C52.1666 9.77629 52.0037 9.88621 51.8221 9.96309C51.6341 10.0428 51.4348 10.0827 51.2286 10.0827C51.0225 10.0827 50.8232 10.0422 50.6352 9.96309C50.4536 9.88621 50.2907 9.77629 50.1506 9.6362C50.0105 9.4961 49.9006 9.33322 49.8237 9.15155C49.744 8.96362 49.7041 8.76429 49.7041 8.55813C49.7041 8.35198 49.7445 8.15265 49.8237 7.96472C49.8562 7.88727 49.8955 7.81323 49.9399 7.74318C49.9416 7.74091 49.9433 7.73806 49.945 7.73521C50.0037 7.64352 50.0726 7.55867 50.1506 7.48008C50.2907 7.33998 50.4536 7.23007 50.6352 7.15318C50.7605 7.10022 50.8904 7.06491 51.0248 7.04669C51.0886 7.03814 51.1523 7.03359 51.2173 7.03302C51.2212 7.03302 51.2247 7.03302 51.2286 7.03302C51.248 7.03302 51.2674 7.03302 51.2862 7.03416C51.3511 7.03644 51.4154 7.04327 51.4787 7.05352C51.596 7.07288 51.711 7.10592 51.8215 7.15261C51.9445 7.20444 52.059 7.27164 52.1638 7.35365C52.1552 7.35308 52.1467 7.35251 52.1381 7.35194C52.1324 7.35194 52.1267 7.35194 52.1205 7.35194H52.1171C52.0977 7.35194 52.0783 7.35365 52.059 7.35593C52.0185 7.36105 51.9792 7.37187 51.9417 7.38782C51.887 7.41117 51.838 7.4442 51.7959 7.48634C51.7725 7.50969 51.7514 7.53532 51.7338 7.56322C51.7338 7.56379 51.7327 7.56493 51.7321 7.5655C51.7184 7.58657 51.707 7.60878 51.6973 7.63213C51.6734 7.68908 51.6615 7.74888 51.6615 7.81095C51.6615 7.87303 51.6734 7.9334 51.6973 7.98978C51.7207 8.04445 51.7537 8.09343 51.7959 8.13557C51.838 8.17771 51.887 8.21074 51.9417 8.23409C51.998 8.25801 52.0584 8.26997 52.1205 8.26997C52.1826 8.26997 52.2429 8.25801 52.2993 8.23409C52.354 8.21074 52.403 8.17771 52.4457 8.13557C52.4878 8.09343 52.5208 8.04445 52.5442 7.98978C52.563 7.94479 52.5749 7.89809 52.5789 7.84911C52.5983 7.88613 52.6165 7.92428 52.633 7.96301C52.7128 8.15094 52.7526 8.35027 52.7526 8.55643L52.7532 8.55813Z" fill="#1749FC"/>
    <path d="M41.5693 2.04364H37.3516V14.9798H41.5693V2.04364Z" fill="#1749FC"/>
    <path d="M61.2702 14.9798V9.05929C61.2702 6.79553 61.2702 4.55627 61.1455 2.29251H65.1884L65.4629 4.30739H65.6873C66.7602 2.81474 68.2079 2.04364 69.9796 2.04364C72.7496 2.04364 74.3966 3.80965 74.3966 7.16855V14.9798H70.1789V8.21301C70.1789 6.5216 69.4049 5.62578 68.0575 5.62578C66.4601 5.62578 65.4868 6.91968 65.4868 8.6857V14.9798H61.2691H61.2702Z" fill="#1749FC"/>
  </g>
  <defs>
    <clipPath id="clip0_3816_20943">
      <rect width="102" height="16" fill="white"/>
    </clipPath>
  </defs>
</svg>