<?xml version="1.0" encoding="UTF-8"?>
<svg id="Layer_1" data-name="Layer 1" xmlns="http://www.w3.org/2000/svg" viewBox="0 0 2072 511">
  <defs>
    <style>
      .cls-1 {
        fill: #010038;
        stroke-width: 0px;
      }
    </style>
  </defs>
  <path class="cls-1" d="M255.16,378.06l-104.3-229.38h80.19l70.99,171.51h3.94l70.99-171.51h78.44l-104.29,229.38h-95.97Z"/>
  <rect class="cls-1" x="473.95" y="150.91" width="74.06" height="227.15"/>
  <path class="cls-1" d="M572.62,323.28l63.98-14.02c5.26,18.4,21.03,27.61,42.51,27.61,18.4,0,28.92-8.33,28.92-20.6,0-38.12-130.15-7.89-130.15-101.67,0-36.81,34.62-64.41,95.09-64.41,50.83,0,88.52,17.53,99.48,55.21l-64.42,14.46c-4.82-17.53-18.84-24.1-33.74-24.1-16.21,0-25.85,7.45-25.85,18.4,0,37.69,130.15,7.89,130.15,101.67,0,39-35.5,66.61-98.16,66.61-56.09,0-96.41-18.84-107.8-59.16Z"/>
  <path class="cls-1" d="M1467.08,380.57V127.87h96.39c80.51,0,128.52,50.9,128.52,126.35s-48.01,126.35-128.52,126.35h-96.39ZM1529.53,328.59h33.93c40.79,0,66.06-27.8,66.06-74.37s-25.27-74.37-66.06-74.37h-33.93v148.74Z"/>
  <path class="cls-1" d="M1709.59,380.57V127.87h109.75c58.12,0,94.22,30.33,94.22,83.75,0,34.29-16.61,58.84-44.4,71.12l51.98,97.83h-69.68l-41.15-88.08h-38.27v88.08h-62.45ZM1772.04,245.55h41.52c22.74,0,37.54-12.28,37.54-33.93s-14.8-34.3-37.54-34.3h-41.52v68.23Z"/>
  <g>
    <path class="cls-1" d="M1038.78,383.13c-47,0-86.5-10.36-114.25-29.95-21.21-14.98-35.41-34.86-41.81-58.25h-20.28v-62.35h21.18c6.8-22.08,20.7-40.9,40.91-55.17,27.74-19.59,67.25-29.95,114.25-29.95s86.56,10.31,114.27,29.83c20.24,14.26,34.15,33.13,40.93,55.29h23.58v62.35h-22.69c-6.38,23.47-20.59,43.4-41.82,58.36-27.7,19.52-67.22,29.84-114.28,29.84ZM923.05,263.99l.53,6.97c1.46,18.97,10.42,34.4,26.63,45.85,20.19,14.26,50.82,21.79,88.57,21.79s68.47-7.51,88.62-21.71c16.19-11.41,25.14-26.86,26.58-45.91l.53-6.99-.74-6.7c-1.98-17.99-10.86-32.66-26.37-43.59-20.16-14.2-50.8-21.7-88.62-21.7s-68.37,7.54-88.57,21.8c-15.54,10.97-24.43,25.61-26.42,43.52l-.74,6.68Z"/>
    <path class="cls-1" d="M1039.27,328.41c-26.67,0-48.9-5.74-64.27-16.6-12.93-9.13-20.94-21.67-23.39-36.51h-10.68v-21.86h11.02c2.8-14.03,10.7-25.94,23.06-34.66,15.38-10.86,37.6-16.6,64.27-16.6s48.94,5.72,64.29,16.53c12.36,8.71,20.26,20.64,23.05,34.72h12.47v21.86h-12.14c-2.44,14.89-10.45,27.46-23.38,36.57-15.35,10.82-37.58,16.54-64.29,16.54ZM961.71,264.38l.38,4.93c1.06,13.86,7.57,25.11,19.33,33.41,13.49,9.52,33.49,14.56,57.85,14.56s44.42-5.02,57.88-14.5c11.75-8.29,18.25-19.54,19.31-33.46l.37-4.93-.53-4.77c-1.45-13.17-7.9-23.87-19.16-31.8-13.47-9.48-33.48-14.5-57.88-14.5s-44.36,5.03-57.85,14.56c-11.27,7.95-17.72,18.63-19.18,31.74l-.53,4.76Z"/>
    <path class="cls-1" d="M1066.77,265.3c0,3.61-.71,7.12-2.1,10.42-1.35,3.19-3.28,6.05-5.74,8.51-2.46,2.46-5.32,4.39-8.51,5.74-3.3,1.4-6.8,2.1-10.42,2.1s-7.12-.71-10.42-2.1c-3.19-1.35-6.05-3.28-8.51-5.74-2.46-2.46-4.39-5.32-5.74-8.51-1.4-3.3-2.1-6.8-2.1-10.42s.71-7.12,2.1-10.42c.57-1.36,1.26-2.66,2.04-3.89.03-.04.06-.09.09-.14,1.03-1.61,2.24-3.1,3.61-4.48,2.46-2.46,5.32-4.39,8.51-5.74,2.2-.93,4.48-1.55,6.84-1.87,1.12-.15,2.24-.23,3.38-.24.07,0,.13,0,.2,0,.34,0,.68,0,1.01.02,0,0,0,0,0,0,1.14.04,2.27.16,3.38.34,2.06.34,4.08.92,6.02,1.74,2.16.91,4.17,2.09,6.01,3.53-.15-.01-.3-.02-.45-.03-.1,0-.2,0-.31,0h-.06c-.34,0-.68.03-1.02.07-.71.09-1.4.28-2.06.56-.96.41-1.82.99-2.56,1.73-.41.41-.78.86-1.09,1.35,0,.01-.02.03-.03.04-.24.37-.44.76-.61,1.17-.42,1-.63,2.05-.63,3.14s.21,2.15.63,3.14c.41.96.99,1.82,1.73,2.56.74.74,1.6,1.32,2.56,1.73.99.42,2.05.63,3.14.63s2.15-.21,3.14-.63c.96-.41,1.82-.99,2.57-1.73.74-.74,1.32-1.6,1.73-2.56.33-.79.54-1.61.61-2.47.34.65.66,1.32.95,2,1.4,3.3,2.1,6.8,2.1,10.42Z"/>
  </g>
  <rect class="cls-1" x="796.34" y="150.91" width="74.06" height="227.15"/>
  <path class="cls-1" d="M1216.34,378.06v-103.96c0-39.75,0-79.07-2.19-118.82h70.99l4.82,35.38h3.94c18.84-26.21,44.26-39.75,75.37-39.75,48.64,0,77.56,31.01,77.56,89.99v137.16h-74.06v-118.82c0-29.7-13.59-45.43-37.25-45.43-28.05,0-45.14,22.72-45.14,53.73v110.52h-74.06Z"/>
</svg>